HIERARCHY 
ROOT hip 
{ 
  OFFSET 0 0 0
  CHANNELS 6 Xposition Yposition Zposition Zrotation Yrotation Xrotation 
  JOINT abdomen 
  { 
    OFFSET 0 0.517203 -0.018288
    CHANNELS 3 Zrotation Xrotation Yrotation 
    JOINT chest 
    { 
      OFFSET 0 0.292608 -0.012192
      CHANNELS 3 Zrotation Xrotation Yrotation 
      JOINT neck 
      { 
        OFFSET 0 0.554735 -0.054864
        CHANNELS 3 Zrotation Xrotation Yrotation 
        JOINT head 
        { 
          OFFSET -0.006096 0.176783 0.03048
          CHANNELS 3 Zrotation Xrotation Yrotation 
          JOINT leftEye 
          { 
            OFFSET 0.103632 0.201168 0.201168
            CHANNELS 3 Zrotation Xrotation Yrotation 
            End Site 
            { 
              OFFSET 0.025 0 0
            } 
          } 
          JOINT rightEye 
          { 
            OFFSET -0.09144 0.201168 0.201168
            CHANNELS 3 Zrotation Xrotation Yrotation 
            End Site 
            { 
              OFFSET 0.025 0 0
            } 
          } 
        } 
      } 
      JOINT rCollar 
      { 
        OFFSET -0.067056 0.481585 -0.12192
        CHANNELS 3 Zrotation Xrotation Yrotation 
        JOINT rShldr 
        { 
          OFFSET -0.219456 -0.0487682 0.036576
          CHANNELS 3 Zrotation Xrotation Yrotation 
          JOINT rForeArm 
          { 
            OFFSET -0.704355 -0.0427875 0.012192
            CHANNELS 3 Zrotation Xrotation Yrotation 
            JOINT rHand 
            { 
              OFFSET -0.564698 0.0193302 0.176784
              CHANNELS 3 Zrotation Xrotation Yrotation 
              JOINT rThumb1 
              { 
                OFFSET -0.03048 -0.0121979 0.085344
                CHANNELS 3 Zrotation Xrotation Yrotation 
                JOINT rThumb2 
                { 
                  OFFSET -0.0842588 -0.0131122 0.085344
                  CHANNELS 3 Zrotation Xrotation Yrotation 
                  End Site 
                  { 
                    OFFSET -0.0445677 -0.0295535 0.0357623
                  } 
                } 
              } 
              JOINT rIndex1 
              { 
                OFFSET -0.193987 0.0234573 0.140208
                CHANNELS 3 Zrotation Xrotation Yrotation 
                JOINT rIndex2 
                { 
                  OFFSET -0.0635143 -0.0221043 0.0391345
                  CHANNELS 3 Zrotation Xrotation Yrotation 
                  End Site 
                  { 
                    OFFSET -0.0406298 -0.00587005 0.0291255
                  } 
                } 
              } 
              JOINT rMid1 
              { 
                OFFSET -0.206179 0.0295532 0.085344
                CHANNELS 3 Zrotation Xrotation Yrotation 
                JOINT rMid2 
                { 
                  OFFSET -0.0775413 -0.0147526 0.0266175
                  CHANNELS 3 Zrotation Xrotation Yrotation 
                  End Site 
                  { 
                    OFFSET -0.0621368 -0.00822258 0.0209355
                  } 
                } 
              } 
              JOINT rRing1 
              { 
                OFFSET -0.220706 0.0136669 0.0379195
                CHANNELS 3 Zrotation Xrotation Yrotation 
                JOINT rRing2 
                { 
                  OFFSET -0.0652335 -0.0204945 -0.00049622
                  CHANNELS 3 Zrotation Xrotation Yrotation 
                  End Site 
                  { 
                    OFFSET -0.0584605 -0.0073513 0.0042032
                  } 
                } 
              } 
              JOINT rPinky1 
              { 
                OFFSET -0.206801 -0.00119476 -0.01146
                CHANNELS 3 Zrotation Xrotation Yrotation 
                JOINT rPinky2 
                { 
                  OFFSET -0.0456835 -0.0161846 -0.0175246
                  CHANNELS 3 Zrotation Xrotation Yrotation 
                  End Site 
                  { 
                    OFFSET -0.0423063 -0.0129417 -0.0151793
                  } 
                } 
              } 
            } 
          } 
        } 
      } 
      JOINT lCollar 
      { 
        OFFSET 0.067056 0.481585 -0.12192
        CHANNELS 3 Zrotation Xrotation Yrotation 
        JOINT lShldr 
        { 
          OFFSET 0.219456 -0.0487682 0.036576
          CHANNELS 3 Zrotation Xrotation Yrotation 
          JOINT lForeArm 
          { 
            OFFSET 0.704355 -0.0427875 0.012192
            CHANNELS 3 Zrotation Xrotation Yrotation 
            JOINT lHand 
            { 
              OFFSET 0.564698 0.0193302 0.176784
              CHANNELS 3 Zrotation Xrotation Yrotation 
              JOINT lThumb1 
              { 
                OFFSET 0.03048 -0.0121979 0.085344
                CHANNELS 3 Zrotation Xrotation Yrotation 
                JOINT lThumb2 
                { 
                  OFFSET 0.0842588 -0.0131122 0.085344
                  CHANNELS 3 Zrotation Xrotation Yrotation 
                  End Site 
                  { 
                    OFFSET 0.0445677 -0.0295535 0.0357623
                  } 
                } 
              } 
              JOINT lIndex1 
              { 
                OFFSET 0.193987 0.0234573 0.140208
                CHANNELS 3 Zrotation Xrotation Yrotation 
                JOINT lIndex2 
                { 
                  OFFSET 0.0635143 -0.0221043 0.0391345
                  CHANNELS 3 Zrotation Xrotation Yrotation 
                  End Site 
                  { 
                    OFFSET 0.0406298 -0.00587005 0.0291255
                  } 
                } 
              } 
              JOINT lMid1 
              { 
                OFFSET 0.206179 0.0295532 0.085344
                CHANNELS 3 Zrotation Xrotation Yrotation 
                JOINT lMid2 
                { 
                  OFFSET 0.0775413 -0.0147526 0.0266175
                  CHANNELS 3 Zrotation Xrotation Yrotation 
                  End Site 
                  { 
                    OFFSET 0.0621368 -0.00822258 0.0209355
                  } 
                } 
              } 
              JOINT lRing1 
              { 
                OFFSET 0.220706 0.0136669 0.0379195
                CHANNELS 3 Zrotation Xrotation Yrotation 
                JOINT lRing2 
                { 
                  OFFSET 0.0652335 -0.0204945 -0.00049622
                  CHANNELS 3 Zrotation Xrotation Yrotation 
                  End Site 
                  { 
                    OFFSET 0.0584605 -0.0073513 0.0042032
                  } 
                } 
              } 
              JOINT lPinky1 
              { 
                OFFSET 0.206801 -0.00119476 -0.01146
                CHANNELS 3 Zrotation Xrotation Yrotation 
                JOINT lPinky2 
                { 
                  OFFSET 0.0456835 -0.0161846 -0.0175246
                  CHANNELS 3 Zrotation Xrotation Yrotation 
                  End Site 
                  { 
                    OFFSET 0.0423063 -0.0129417 -0.0151793
                  } 
                } 
              } 
            } 
          } 
        } 
      } 
    } 
  } 
  JOINT rButtock 
  { 
    OFFSET -0.219456 0.108771 0.03048
    CHANNELS 3 Zrotation Xrotation Yrotation 
    JOINT rThigh 
    { 
      OFFSET 0 -0.0426718 -0.054864
      CHANNELS 3 Zrotation Xrotation Yrotation 
      JOINT rShin 
      { 
        OFFSET 0 -0.920498 0.018288
        CHANNELS 3 Zrotation Xrotation Yrotation 
        JOINT rFoot 
        { 
          OFFSET 0.018288 -1.12776 -0.128016
          CHANNELS 3 Zrotation Xrotation Yrotation 
          End Site 
          { 
            OFFSET -0.0280525 -0.092491 0.302575
          } 
        } 
      } 
    } 
  } 
  JOINT lButtock 
  { 
    OFFSET 0.219456 0.108771 0.03048
    CHANNELS 3 Zrotation Xrotation Yrotation 
    JOINT lThigh 
    { 
      OFFSET 0 -0.0426718 -0.054864
      CHANNELS 3 Zrotation Xrotation Yrotation 
      JOINT lShin 
      { 
        OFFSET 0 -0.920498 0.018288
        CHANNELS 3 Zrotation Xrotation Yrotation 
        JOINT lFoot 
        { 
          OFFSET -0.018288 -1.12776 -0.128016
          CHANNELS 3 Zrotation Xrotation Yrotation 
          End Site 
          { 
            OFFSET 0.0280525 -0.092491 0.302575
          } 
        } 
      } 
    } 
  } 
} 
MOTION 
Frames:	6 
Frame Time:	0.00833333 
-0.52663 1.9776 0.407103 196.683 -63.5466 -169.77 0.0102221 16.6247 2.75243 12.0918 -3.35956 0.665556 2.846 21.6051 22.3236 -28.5011 -42.1432 35.3834 -0 0 0 -0 0 0 -7.41929e-14 2.72252e-13 -4.60043e-14 64.8573 12.7767 -32.2387 -28.4297 -35.2141 75.6998 -0.0111919 3.02395 0.425386 -4.21667e-10 -2.47361e-09 1.56195e-09 -7.26658e-10 -4.26666e-09 2.69795e-09 -4.21666e-10 -2.47361e-09 1.56194e-09 7.73091 5.47488 0.417314 -4.2167e-10 -2.4736e-09 1.56194e-09 2.90554 0.965183 0.102902 -4.21661e-10 -2.47361e-09 1.56195e-09 10.2786 0.731801 0.0259123 -4.2167e-10 -2.47361e-09 1.56195e-09 2.22167 -0.733487 -0.20892 -7.42148e-14 2.72243e-13 -4.61619e-14 -13.2857 10.6901 -77.3946 27.1375 -26.8081 -62.1675 0.44958 18.7114 -2.7284 -9.14436e-10 -8.10457e-09 1.44703e-09 -1.55731e-09 -1.39963e-08 2.52493e-09 -9.1444e-10 -8.10455e-09 1.44705e-09 -7.73091 5.47488 -0.417314 -9.14436e-10 -8.10458e-09 1.44704e-09 -2.90554 0.965183 -0.102902 -9.14438e-10 -8.10458e-09 1.44703e-09 -10.2786 0.731801 -0.0259123 -9.14425e-10 -8.10458e-09 1.44703e-09 -2.22167 -0.733487 0.20892 -2.03217e-16 0 -3.88251e-19 -1.23086 -33.2193 27.6531 0.181698 26.1233 1.18071 -7.37677 -17.1019 -21.6779 2.03217e-16 0 3.88251e-19 10.9959 -60.1283 -15.2111 0.573014 47.7361 -0.805866 4.06533 -1.20725 19.4101 
-0.52295 1.97786 0.404558 196.645 -63.5198 -169.507 0.0361702 16.6103 2.84738 12.0575 -3.34343 0.691453 2.87416 21.6147 22.3257 -28.6629 -41.9045 35.3642 -0 0 0 -0 0 0 -1.04974e-13 1.36763e-13 6.04802e-14 64.8942 13.039 -31.9229 -28.4304 -35.2561 75.7695 -0.0106577 2.94622 0.414433 -1.00793e-09 -3.84852e-09 1.61908e-09 -1.73937e-09 -6.65025e-09 2.79956e-09 -1.00793e-09 -3.84852e-09 1.61907e-09 7.73091 5.47488 0.417314 -1.00793e-09 -3.84851e-09 1.61908e-09 2.90554 0.965183 0.102902 -1.00792e-09 -3.84852e-09 1.61908e-09 10.2786 0.731801 0.0259123 -1.00793e-09 -3.84852e-09 1.61908e-09 2.22167 -0.733487 -0.20892 -1.0495e-13 1.36764e-13 6.03311e-14 -13.6187 10.9947 -77.4173 27.1007 -26.68 -61.9641 0.452126 18.7615 -2.73627 -2.01594e-09 -1.49882e-08 2.28032e-09 -3.4487e-09 -2.59046e-08 3.97957e-09 -2.01594e-09 -1.49882e-08 2.28033e-09 -7.73091 5.47488 -0.417314 -2.01594e-09 -1.49883e-08 2.28033e-09 -2.90554 0.965183 -0.102902 -2.01594e-09 -1.49883e-08 2.28032e-09 -10.2786 0.731801 -0.0259123 -2.01592e-09 -1.49883e-08 2.28031e-09 -2.22167 -0.733487 0.20892 -2.03217e-16 0 -3.88251e-19 -1.22856 -33.2567 27.7341 0.180927 26.2786 1.18121 -7.41167 -17.2393 -21.5762 2.03217e-16 0 3.88251e-19 11.1727 -60.0186 -14.9195 0.569635 47.6195 -0.800972 4.04451 -1.21735 19.3079 
-0.52097 1.97774 0.401858 196.386 -63.5941 -169.333 0.0888451 16.6786 2.95383 11.9804 -3.31269 0.718072 2.99028 21.5603 22.2963 -28.8313 -41.6322 35.2995 -0 0 0 -0 0 0 -6.60602e-14 1.75397e-13 -7.35854e-15 64.9741 13.2478 -31.6012 -28.431 -35.3003 75.8429 -0.0105628 2.93008 0.41216 -1.54606e-10 -1.23807e-09 7.47024e-10 -2.66963e-10 -2.13688e-09 1.29004e-09 -1.54605e-10 -1.23807e-09 7.47009e-10 7.73091 5.47488 0.417314 -1.54609e-10 -1.23806e-09 7.47019e-10 2.90554 0.965183 0.102902 -1.546e-10 -1.23807e-09 7.47024e-10 10.2786 0.731801 0.0259123 -1.54612e-10 -1.23807e-09 7.47025e-10 2.22167 -0.733487 -0.20892 -6.60354e-14 1.75409e-13 -7.5309e-15 -13.8366 11.3031 -77.5283 27.0698 -26.5742 -61.7981 0.448338 18.6869 -2.72455 -1.24217e-09 -8.73169e-09 1.15794e-09 -2.12848e-09 -1.51239e-08 2.02941e-09 -1.24217e-09 -8.73167e-09 1.15796e-09 -7.73091 5.47488 -0.417314 -1.24217e-09 -8.7317e-09 1.15795e-09 -2.90554 0.965183 -0.102902 -1.24216e-09 -8.73169e-09 1.15794e-09 -10.2786 0.731801 -0.0259123 -1.24215e-09 -8.73169e-09 1.15793e-09 -2.22167 -0.733487 0.20892 -2.03217e-16 0 -3.88251e-19 -1.29257 -33.1762 27.6654 0.180168 26.4283 1.18345 -7.42235 -17.3877 -21.3991 2.03217e-16 0 3.88251e-19 11.2192 -59.8242 -14.7891 0.566034 47.4957 -0.796439 4.02371 -1.22594 19.206 
-0.51965 1.97748 0.398518 196.126 -63.677 -169.297 0.159904 16.8212 3.07777 11.8693 -3.26513 0.746785 3.1604 21.4596 22.2454 -28.9961 -41.3418 35.2064 -0 0 0 -0 0 0 1.90827e-14 3.10887e-13 -1.80593e-13 65.0812 13.4358 -31.2695 -28.4316 -35.3463 75.9192 -0.0107224 2.95095 0.415102 1.57439e-09 3.8372e-09 -7.35387e-10 2.71707e-09 6.64155e-09 -1.27746e-09 1.57439e-09 3.83721e-09 -7.35406e-10 7.73091 5.47488 0.417314 1.57439e-09 3.83721e-09 -7.35389e-10 2.90554 0.965183 0.102902 1.5744e-09 3.83721e-09 -7.35386e-10 10.2786 0.731801 0.0259123 1.57439e-09 3.83721e-09 -7.35384e-10 2.22167 -0.733487 -0.20892 1.90819e-14 3.10912e-13 -1.8081e-13 -13.9771 11.616 -77.691 27.0449 -26.4895 -61.6642 0.440529 18.531 -2.70013 6.35043e-10 5.37466e-09 -1.15593e-09 1.08088e-09 9.20799e-09 -1.99471e-09 6.35038e-10 5.37466e-09 -1.15591e-09 -7.73091 5.47488 -0.417314 6.35043e-10 5.37465e-09 -1.15592e-09 -2.90554 0.965183 -0.102902 6.35048e-10 5.37466e-09 -1.15593e-09 -10.2786 0.731801 -0.0259123 6.35056e-10 5.37466e-09 -1.15594e-09 -2.22167 -0.733487 0.20892 -2.03217e-16 0 -3.88251e-19 -1.40147 -32.9877 27.4873 0.179228 26.5691 1.18671 -7.41238 -17.5623 -21.1453 2.03217e-16 0 3.88251e-19 11.1963 -59.5432 -14.7448 0.562456 47.3735 -0.792474 4.00652 -1.24255 19.1062 
-0.51955 1.97716 0.394328 195.909 -63.7011 -169.436 0.23091 16.9774 3.17176 11.7525 -3.21432 0.766815 3.32418 21.3753 22.2014 -29.1526 -41.0858 35.1247 -0 0 0 -0 0 0 9.46892e-14 4.58703e-13 -3.49356e-13 65.1985 13.6462 -30.9307 -28.4321 -35.3931 75.997 -0.0110719 2.99971 0.421973 3.22763e-09 8.6326e-09 -2.08792e-09 5.57046e-09 1.49364e-08 -3.62017e-09 3.22764e-09 8.63261e-09 -2.08794e-09 7.73091 5.47488 0.417314 3.22763e-09 8.63261e-09 -2.08792e-09 2.90554 0.965183 0.102902 3.22764e-09 8.63261e-09 -2.08792e-09 10.2786 0.731801 0.0259123 3.22763e-09 8.63261e-09 -2.08792e-09 2.22167 -0.733487 -0.20892 9.46534e-14 4.58738e-13 -3.49621e-13 -14.1022 11.9152 -77.8368 27.0204 -26.4064 -61.5307 0.433267 18.3836 -2.67708 2.62269e-09 1.98997e-08 -3.4452e-09 4.48138e-09 3.42726e-08 -5.97846e-09 2.62269e-09 1.98997e-08 -3.44519e-09 -7.73091 5.47488 -0.417314 2.62269e-09 1.98997e-08 -3.4452e-09 -2.90554 0.965183 -0.102902 2.6227e-09 1.98997e-08 -3.4452e-09 -10.2786 0.731801 -0.0259123 2.6227e-09 1.98997e-08 -3.44521e-09 -2.22167 -0.733487 0.20892 -2.03217e-16 0 -3.88251e-19 -1.53324 -32.7602 27.2603 0.178016 26.7075 1.19055 -7.39055 -17.7425 -20.8584 2.03217e-16 0 3.88251e-19 11.1051 -59.2274 -14.7954 0.558469 47.2302 -0.786543 3.96881 -1.19174 19.0209 
-0.52037 1.97674 0.390373 195.524 -63.7748 -169.417 0.28437 17.0864 3.18808 11.6588 -3.17386 0.767387 3.4216 21.3702 22.1922 -29.2973 -40.9168 35.0931 -0 0 0 -0 0 0 1.04993e-13 5.34315e-13 -4.03781e-13 65.3079 13.9226 -30.5875 -28.4325 -35.4399 76.0748 -0.0115522 3.06723 0.431487 3.85368e-09 1.04034e-08 -2.57035e-09 6.65094e-09 1.79989e-08 -4.45534e-09 3.85368e-09 1.04034e-08 -2.57037e-09 7.73091 5.47488 0.417314 3.85368e-09 1.04034e-08 -2.57035e-09 2.90554 0.965183 0.102902 3.85368e-09 1.04034e-08 -2.57035e-09 10.2786 0.731801 0.0259123 3.85367e-09 1.04034e-08 -2.57035e-09 2.22167 -0.733487 -0.20892 1.0493e-13 5.34352e-13 -4.0408e-13 -14.2755 12.1862 -77.8945 26.9901 -26.3047 -61.3663 0.430853 18.3343 -2.66939 3.72779e-09 2.74124e-08 -4.49382e-09 6.37503e-09 4.72514e-08 -7.80748e-09 3.72778e-09 2.74124e-08 -4.4938e-09 -7.73091 5.47488 -0.417314 3.72779e-09 2.74124e-08 -4.49381e-09 -2.90554 0.965183 -0.102902 3.72779e-09 2.74124e-08 -4.49381e-09 -10.2786 0.731801 -0.0259123 3.7278e-09 2.74124e-08 -4.49382e-09 -2.22167 -0.733487 0.20892 -2.03217e-16 0 -3.88251e-19 -1.66773 -32.5635 27.0435 0.176445 26.8497 1.19451 -7.36649 -17.9076 -20.5825 2.03217e-16 0 3.88251e-19 10.948 -58.9287 -14.9486 0.553695 47.0433 -0.776156 3.8868 -0.99795 18.9629 
